<svg version="1.1" id="Layer_1" xmlns="http://www.w3.org/2000/svg" xmlns:xlink="http://www.w3.org/1999/xlink" x="0px" y="0px"
	 width="100%" viewBox="0 0 636 392" enable-background="new 0 0 636 392" xml:space="preserve">
<path fill="#000000" opacity="1.000000" stroke="none" 
	d="
M366.000000,393.000000 
	C244.029526,393.000000 122.559052,393.000000 1.044288,393.000000 
	C1.044288,262.394623 1.044288,131.789230 1.044288,1.091918 
	C212.887177,1.091918 424.774384,1.091918 636.830811,1.091918 
	C636.830811,131.666489 636.830811,262.333221 636.830811,393.000000 
	C546.789185,393.000000 456.644592,393.000000 366.000000,393.000000 
M186.244034,313.798218 
	C187.818420,314.232819 189.392822,314.667389 191.101593,315.592438 
	C191.395432,315.670929 191.689255,315.749390 192.832703,315.985382 
	C194.843384,315.999817 196.854080,316.014252 199.140121,316.705566 
	C200.089371,316.775391 201.038605,316.845215 202.664368,317.065826 
	C203.119690,317.010406 203.575012,316.955017 204.958481,317.006042 
	C235.636795,316.947815 266.315125,316.889618 297.918823,316.992371 
	C313.598206,316.937561 329.277588,316.882721 345.887177,316.990845 
	C356.537048,316.998505 367.186951,317.016632 377.836823,317.010925 
	C389.167847,317.004883 400.508423,317.252655 411.826569,316.861389 
	C419.510468,316.595795 425.950775,313.103363 430.981628,306.581543 
	C430.981628,306.581543 431.065369,306.131958 431.706360,305.915741 
	C432.512573,304.627075 433.318787,303.338409 434.770813,301.688202 
	C435.790131,297.455658 436.809418,293.223145 437.972260,288.550659 
	C437.972260,288.550659 438.013062,288.089691 438.812866,287.698944 
	C438.826782,252.465836 438.840698,217.232712 439.003418,181.073257 
	C438.998535,168.816589 439.028687,156.559677 438.941711,144.303589 
	C438.931519,142.872559 438.274261,141.446121 437.875793,139.506805 
	C437.829529,139.342392 437.783264,139.177963 437.927734,138.329559 
	C437.906708,137.857956 437.885681,137.386337 437.999786,136.200134 
	C436.355469,133.792023 434.711182,131.383911 432.976471,128.253433 
	C431.337708,126.135132 429.698975,124.016830 427.847382,121.346268 
	C427.223450,120.952927 426.599518,120.559586 425.554291,120.013382 
	C425.554291,120.013382 425.108948,119.963058 424.984497,119.236320 
	C424.016052,118.819870 423.047638,118.403412 421.951447,117.239517 
	C418.343231,115.819420 414.735046,114.399330 410.707886,112.191833 
	C410.215302,112.124290 409.722687,111.997635 409.230103,111.997559 
	C339.609344,111.987007 269.988556,111.980804 200.367813,112.025330 
	C199.197144,112.026077 198.026886,112.647545 196.028381,112.967186 
	C182.337738,113.163750 168.617249,126.845055 169.204391,143.274002 
	C169.135483,143.598526 169.001114,143.924210 169.006927,144.247391 
	C169.663559,180.652573 170.299408,217.058151 171.017136,253.462143 
	C171.218735,263.688232 171.404633,273.927124 172.100616,284.125824 
	C172.465546,289.473694 173.919434,294.747223 174.994019,300.772339 
	C175.979370,302.560059 176.964722,304.347748 178.212402,306.769867 
	C180.130157,308.567322 182.047913,310.364807 184.166031,312.745697 
	C184.760010,312.876617 185.354004,313.007568 186.244034,313.798218 
z"/>
<path fill="#F2F4FE" opacity="1.000000" stroke="none" 
	d="
M174.881561,300.054321 
	C173.919434,294.747223 172.465546,289.473694 172.100616,284.125824 
	C171.404633,273.927124 171.218735,263.688232 171.017136,253.462143 
	C170.299408,217.058151 169.663559,180.652573 169.006927,144.247391 
	C169.001114,143.924210 169.135483,143.598526 169.638367,143.530090 
	C170.061356,149.100555 170.209503,154.421631 169.985931,159.727066 
	C169.825027,163.545731 171.129196,165.412872 175.112930,164.944000 
	C176.426926,164.789337 177.754745,164.752045 179.398071,164.727448 
	C180.157242,164.786774 180.594574,164.779724 181.241104,165.108002 
	C183.616730,165.200134 185.783188,164.956955 188.412354,164.737411 
	C192.583542,164.836685 196.291977,164.912338 200.007477,165.382935 
	C200.329590,167.062363 200.426514,168.455002 200.999771,169.611526 
	C202.875519,173.395874 202.545563,176.554291 200.608154,180.579254 
	C198.629028,184.690857 198.151459,189.822144 198.106003,194.517578 
	C197.875778,218.311279 198.201416,242.111328 197.858414,265.902313 
	C197.772629,271.852386 196.959671,278.126221 191.785965,282.557770 
	C187.046066,286.617737 182.339600,290.724518 177.794220,294.997711 
	C176.811295,295.921783 176.579544,297.644897 175.870941,299.229095 
	C175.453903,299.656921 175.167740,299.855621 174.881561,300.054321 
z"/>
<path fill="#E2E4F9" opacity="1.000000" stroke="none" 
	d="
M183.965668,312.162262 
	C182.047913,310.364807 180.130157,308.567322 178.097748,306.061462 
	C177.989960,304.569916 177.996811,303.786804 178.352982,302.964386 
	C183.232574,298.650879 188.806213,296.743896 194.832565,296.086395 
	C199.601852,295.566071 204.404160,295.063690 209.192963,295.052612 
	C245.749252,294.968018 282.305878,294.989197 318.862305,295.039215 
	C321.646667,295.043030 324.451538,295.873077 327.210022,295.706940 
	C333.140991,295.349762 339.041687,294.167358 344.965790,294.081635 
	C361.283875,293.845459 377.610016,293.839783 393.927734,294.087860 
	C399.554321,294.173431 403.970337,293.415527 409.312927,290.211456 
	C415.831696,286.302032 417.016937,281.842804 416.971619,275.759247 
	C416.696533,238.827454 416.336060,201.896286 416.412231,164.912231 
	C417.900604,164.708267 418.980835,164.557007 420.375824,164.523132 
	C421.128448,164.736084 421.566345,164.831635 422.041870,165.308228 
	C422.386383,177.192490 422.896667,188.694641 422.958282,200.199173 
	C423.093018,225.356140 423.001923,250.514359 422.999176,275.672058 
	C422.997772,288.321686 413.448486,298.413086 400.812134,298.979614 
	C391.360870,299.403351 381.904327,299.870911 372.446686,299.964294 
	C330.422119,300.379364 288.396606,300.706879 246.370850,300.980865 
	C228.711212,301.095978 211.048904,300.883179 193.390732,301.080597 
	C188.843536,301.131439 183.867538,301.336243 182.003052,307.347961 
	C182.667358,308.796722 183.330429,309.897522 183.985291,311.289246 
	C183.973282,311.774231 183.969467,311.968262 183.965668,312.162262 
z"/>
<path fill="#9496F8" opacity="1.000000" stroke="none" 
	d="
M425.108948,119.963058 
	C425.108948,119.963058 425.554291,120.013382 425.614746,120.354568 
	C424.783844,121.796288 423.892548,122.896820 422.784424,124.109970 
	C422.297150,124.423401 422.107147,124.683060 421.635712,125.040985 
	C412.750549,129.663101 403.755829,132.033356 394.003235,131.012039 
	C390.054871,130.598587 386.096344,130.147079 382.133240,130.033279 
	C367.655884,129.617508 353.174957,129.322601 338.694794,129.008942 
	C322.466125,128.657394 306.237122,128.319366 290.007690,128.003983 
	C271.890961,127.651932 253.773926,127.311150 235.656265,127.011032 
	C230.410400,126.924126 225.161911,127.003273 219.914703,126.983459 
	C218.919174,126.979706 217.858688,127.071068 216.938980,126.774696 
	C209.151306,124.265121 202.304703,128.131790 195.204102,130.037735 
	C193.999985,130.360947 192.717224,131.859528 192.219498,133.112518 
	C188.417969,142.682205 189.122940,152.347290 191.737640,162.277466 
	C189.649521,162.696655 187.828415,162.839005 186.004791,162.514984 
	C185.758392,154.935211 184.695297,147.731888 185.464020,140.729660 
	C186.596283,130.416122 195.075470,123.833351 205.756851,124.034927 
	C235.638992,124.598854 265.516510,125.408722 295.398651,125.970802 
	C319.658203,126.427101 343.921753,126.676453 368.183838,126.992981 
	C375.005829,127.081978 381.961365,126.261879 388.618164,127.333641 
	C396.993713,128.682129 405.008514,128.187302 412.911224,125.732185 
	C415.513428,124.923759 417.652008,122.622955 420.251953,121.003418 
	C420.501282,121.002266 421.000000,120.999695 421.353760,120.962982 
	C422.841309,120.605202 423.975128,120.284126 425.108948,119.963058 
z"/>
<path fill="#BCBDE7" opacity="1.000000" stroke="none" 
	d="
M438.013062,288.089691 
	C438.013062,288.089691 437.972260,288.550659 437.546204,288.865875 
	C435.547577,293.023651 433.945435,296.855133 432.486176,300.740265 
	C432.410034,300.942993 433.550751,301.602753 434.125000,302.049744 
	C433.318787,303.338409 432.512573,304.627075 431.219177,305.782715 
	C430.149200,306.095581 429.566376,306.541443 428.851624,307.044067 
	C428.817291,307.072601 428.914917,307.044373 429.316010,307.013641 
	C430.024170,307.012146 430.428802,307.013153 430.833466,307.014160 
	C425.950775,313.103363 419.510468,316.595795 411.826569,316.861389 
	C400.508423,317.252655 389.167847,317.004883 377.836823,317.010925 
	C367.186951,317.016632 356.537048,316.998505 345.098145,316.659058 
	C338.533356,316.212524 332.757568,316.097717 326.711609,315.707458 
	C323.967102,315.615173 321.492767,315.798370 318.598511,315.988464 
	C316.778656,315.988861 315.378723,315.982330 313.766968,315.723450 
	C312.376129,315.640472 311.197052,315.809814 309.638794,315.986816 
	C308.501099,315.990692 307.742584,315.986877 306.685394,315.694977 
	C304.576355,315.271240 302.766266,315.021606 300.955658,315.017822 
	C284.633820,314.983673 268.311890,314.992676 251.994110,314.655579 
	C251.998215,313.877411 251.998215,313.432648 252.372650,312.990540 
	C253.495621,312.992188 254.244156,312.991180 255.461792,312.993652 
	C306.432953,313.206390 356.934967,313.433624 407.437225,313.514587 
	C408.624268,313.516479 409.813965,311.876556 411.376587,311.001465 
	C412.498962,310.998291 413.247192,310.996094 414.369629,310.990295 
	C423.442688,308.618683 428.593750,302.201263 433.181274,294.883881 
	C433.390381,294.701691 433.519257,294.549622 433.491882,294.512299 
	C433.363159,294.337036 433.191559,294.193268 433.033752,293.643066 
	C434.021088,289.497803 435.009949,285.747681 436.259583,282.227753 
	C436.968414,283.948181 437.416473,285.438385 437.906799,287.218231 
	C437.970367,287.701782 437.991730,287.895752 438.013062,288.089691 
z"/>
<path fill="#B6B8ED" opacity="1.000000" stroke="none" 
	d="
M179.076233,164.661072 
	C177.754745,164.752045 176.426926,164.789337 175.112930,164.944000 
	C171.129196,165.412872 169.825027,163.545731 169.985931,159.727066 
	C170.209503,154.421631 170.061356,149.100555 170.026184,143.307495 
	C168.617249,126.845055 182.337738,113.163750 196.920319,112.996658 
	C268.917114,113.010498 340.021973,112.994865 411.126831,112.979240 
	C414.735046,114.399330 418.343231,115.819420 421.744110,117.618805 
	C421.356232,118.006989 421.175690,118.015884 420.661621,118.011444 
	C419.883179,117.987648 419.438202,117.977180 418.848511,117.683952 
	C417.800568,116.940575 416.897369,116.479958 415.578003,116.015732 
	C413.774567,116.008362 412.387299,116.004601 410.903687,115.607224 
	C408.970490,114.809509 407.134583,114.058235 405.296661,114.053322 
	C377.310699,113.978683 349.324463,114.001892 321.338287,114.001785 
	C282.357544,114.001640 243.376740,113.974548 204.396332,114.085205 
	C202.593323,114.090317 200.793808,115.328209 198.614746,116.038445 
	C196.492569,116.387177 194.748306,116.689407 192.911896,116.831207 
	C192.544540,116.776611 192.269348,116.882462 191.623169,116.996452 
	C190.474030,117.235039 189.495117,117.243004 188.951660,117.733459 
	C186.237717,120.182655 184.007187,123.447258 180.902451,125.111122 
	C177.227112,127.080795 176.325287,130.096863 174.811081,133.430527 
	C171.033127,141.747955 173.413086,150.294144 173.203873,158.713654 
	C173.169266,160.106644 175.661758,161.562439 177.283539,163.028503 
	C178.079178,163.598892 178.577713,164.129990 179.076233,164.661072 
z"/>
<path fill="#7271E7" opacity="1.000000" stroke="none" 
	d="
M422.004211,164.927185 
	C421.566345,164.831635 421.128448,164.736084 420.362732,164.290863 
	C420.016724,163.625214 420.007965,163.308945 420.372620,162.925400 
	C421.825348,159.537888 423.133698,156.270966 423.959259,152.886307 
	C425.999237,144.522873 425.831299,135.352661 433.066895,128.975800 
	C434.711182,131.383911 436.355469,133.792023 437.731018,136.720322 
	C437.553802,137.831512 437.645416,138.422516 437.737000,139.013535 
	C437.783264,139.177963 437.829529,139.342392 437.915283,139.981888 
	C437.954773,140.456970 437.869476,140.889572 437.503021,141.026031 
	C436.875824,143.625809 436.678284,146.097809 436.341553,148.550690 
	C435.592682,154.005493 434.774170,159.450729 433.735046,164.913162 
	C433.485992,164.926468 432.997101,165.025482 432.562561,164.974167 
	C430.089569,164.928955 428.051117,164.935059 425.613281,164.893936 
	C424.144012,164.873535 423.074097,164.900360 422.004211,164.927185 
z"/>
<path fill="#7D7DEC" opacity="1.000000" stroke="none" 
	d="
M433.021667,128.614624 
	C425.831299,135.352661 425.999237,144.522873 423.959259,152.886307 
	C423.133698,156.270966 421.825348,159.537888 419.917114,162.927246 
	C416.060425,162.987061 413.023285,162.977997 409.991821,162.567749 
	C412.462494,154.263840 414.872833,146.343109 417.464722,138.482239 
	C417.773651,137.545349 419.152649,137.005371 419.897369,136.159653 
	C421.968750,133.807419 423.967285,131.391052 426.269684,128.747070 
	C426.695312,126.995171 426.845825,125.496239 427.114258,123.727150 
	C427.508148,122.937508 427.784180,122.418015 428.060211,121.898529 
	C429.698975,124.016830 431.337708,126.135132 433.021667,128.614624 
z"/>
<path fill="#F2F4FE" opacity="1.000000" stroke="none" 
	d="
M410.917358,112.585541 
	C340.021973,112.994865 268.917114,113.010498 197.334335,113.002747 
	C198.026886,112.647545 199.197144,112.026077 200.367813,112.025330 
	C269.988556,111.980804 339.609344,111.987007 409.230103,111.997559 
	C409.722687,111.997635 410.215302,112.124290 410.917358,112.585541 
z"/>
<path fill="#C3C5EE" opacity="1.000000" stroke="none" 
	d="
M251.998199,312.987854 
	C251.998215,313.432648 251.998215,313.877411 251.621735,314.657288 
	C250.499908,314.991302 249.754578,314.990173 248.909515,314.597565 
	C243.855576,313.919678 238.902466,313.604065 233.944473,313.419342 
	C233.646561,313.408234 233.309723,314.441742 232.524231,314.990112 
	C226.707611,315.324402 221.357758,315.657776 215.578003,316.004761 
	C213.427200,316.007477 211.706329,315.996643 209.881729,315.768066 
	C209.582535,315.280304 209.327164,315.091187 208.960266,314.663208 
	C207.939102,314.230713 206.969543,314.117920 205.536377,314.004028 
	C202.327240,314.001923 199.558548,313.786224 196.844803,314.079346 
	C195.180679,314.259125 193.600800,315.218567 191.983093,315.827881 
	C191.689255,315.749390 191.395432,315.670929 190.927338,315.033630 
	C189.841690,310.472992 193.464783,312.007660 195.438919,310.996552 
	C197.917175,310.997833 199.958145,310.997711 202.415924,310.999084 
	C204.222015,310.999634 205.611313,310.998596 207.418274,310.997009 
	C210.889496,310.666809 213.943085,310.337158 217.084518,310.384033 
	C219.966248,312.417877 222.706970,313.522614 225.447372,310.006714 
	C230.927094,310.335724 235.962860,310.665405 241.445953,310.996857 
	C245.261612,311.661682 248.629913,312.324768 251.998199,312.987854 
z"/>
<path fill="#F2F4FE" opacity="1.000000" stroke="none" 
	d="
M438.412964,287.894318 
	C437.991730,287.895752 437.970367,287.701782 437.943359,286.758484 
	C437.975922,251.341721 438.014130,216.674286 438.252930,182.002930 
	C438.453461,181.999023 438.854645,181.999603 438.854645,181.999603 
	C438.840698,217.232712 438.826782,252.465836 438.412964,287.894318 
z"/>
<path fill="#E2E4F9" opacity="1.000000" stroke="none" 
	d="
M209.985443,315.985840 
	C211.706329,315.996643 213.427200,316.007477 216.045715,316.010315 
	C243.617569,316.022736 270.291809,316.043182 296.973328,316.255554 
	C296.980621,316.447479 296.993439,316.831390 296.993439,316.831421 
	C266.315125,316.889618 235.636795,316.947815 204.751221,316.669495 
	C206.357773,316.217255 208.171616,316.101562 209.985443,315.985840 
z"/>
<path fill="#CFD0F4" opacity="1.000000" stroke="none" 
	d="
M297.456116,316.911865 
	C296.993439,316.831390 296.980621,316.447479 297.430420,316.231079 
	C300.914825,316.004120 303.949463,315.993591 306.984100,315.983032 
	C307.742584,315.986877 308.501099,315.990692 310.034668,315.992188 
	C311.866089,315.985199 312.922424,315.980499 313.978790,315.975800 
	C315.378723,315.982330 316.778656,315.988861 319.040039,315.993713 
	C322.261597,315.989014 324.621704,315.985962 326.981781,315.982910 
	C332.757568,316.097717 338.533356,316.212524 344.633057,316.577576 
	C329.277588,316.882721 313.598206,316.937561 297.456116,316.911865 
z"/>
<path fill="#E7E9FC" opacity="1.000000" stroke="none" 
	d="
M438.929016,181.536438 
	C438.854645,181.999603 438.453461,181.999023 438.227112,181.535034 
	C437.961700,175.678116 437.922668,170.285202 437.969543,164.438995 
	C437.993500,156.287018 437.931488,148.588287 437.869476,140.889572 
	C437.869476,140.889572 437.954773,140.456970 437.935883,140.237274 
	C438.274261,141.446121 438.931519,142.872559 438.941711,144.303589 
	C439.028687,156.559677 438.998535,168.816589 438.929016,181.536438 
z"/>
<path fill="#B7B8DB" opacity="1.000000" stroke="none" 
	d="
M209.881729,315.768066 
	C208.171616,316.101562 206.357773,316.217255 204.287140,316.616302 
	C203.575012,316.955017 203.119690,317.010406 202.128036,316.704224 
	C200.682724,316.237946 199.773743,316.133301 198.864761,316.028687 
	C196.854080,316.014252 194.843384,315.999817 192.407898,315.906616 
	C193.600800,315.218567 195.180679,314.259125 196.844803,314.079346 
	C199.558548,313.786224 202.327240,314.001923 205.748077,314.260925 
	C207.286240,314.673584 208.149063,314.828247 209.011902,314.982910 
	C209.327164,315.091187 209.582535,315.280304 209.881729,315.768066 
z"/>
<path fill="#CBCCF3" opacity="1.000000" stroke="none" 
	d="
M195.001648,310.995117 
	C193.464783,312.007660 189.841690,310.472992 190.860153,314.788391 
	C189.392822,314.667389 187.818420,314.232819 186.151855,313.130859 
	C186.706665,311.309418 187.353638,310.155334 188.294388,308.873901 
	C189.392212,308.498108 190.196259,308.249664 191.226166,308.261505 
	C192.635254,309.346222 193.818451,310.170654 195.001648,310.995117 
z"/>
<path fill="#B7B8DB" opacity="1.000000" stroke="none" 
	d="
M434.447876,301.868958 
	C433.550751,301.602753 432.410034,300.942993 432.486176,300.740265 
	C433.945435,296.855133 435.547577,293.023651 437.474426,289.085876 
	C436.809418,293.223145 435.790131,297.455658 434.447876,301.868958 
z"/>
<path fill="#E9ECFD" opacity="1.000000" stroke="none" 
	d="
M178.003662,303.003662 
	C177.996811,303.786804 177.989960,304.569916 177.966599,305.744263 
	C176.964722,304.347748 175.979370,302.560059 174.937805,300.413330 
	C175.167740,299.855621 175.453903,299.656921 176.203964,299.229126 
	C177.111893,299.000427 177.555954,299.000824 178.000000,299.401367 
	C178.001221,300.868896 178.002441,301.936279 178.003662,303.003662 
z"/>
<path fill="#8F91F7" opacity="1.000000" stroke="none" 
	d="
M427.953796,121.622391 
	C427.784180,122.418015 427.508148,122.937508 426.714844,123.728455 
	C425.132080,123.999054 424.066650,123.998192 423.001221,123.997345 
	C423.892548,122.896820 424.783844,121.796288 425.825378,120.431000 
	C426.599518,120.559586 427.223450,120.952927 427.953796,121.622391 
z"/>
<path fill="#CFD0F4" opacity="1.000000" stroke="none" 
	d="
M188.000610,309.001221 
	C187.353638,310.155334 186.706665,311.309418 186.003845,312.801025 
	C185.354004,313.007568 184.760010,312.876617 184.065857,312.453979 
	C183.969467,311.968262 183.973282,311.774231 184.147659,310.986023 
	C185.545700,309.928314 186.773148,309.464783 188.000610,309.001221 
z"/>
<path fill="#999DF9" opacity="1.000000" stroke="none" 
	d="
M420.995117,118.024773 
	C421.175690,118.015884 421.356232,118.006989 421.807983,117.992531 
	C423.047638,118.403412 424.016052,118.819870 425.046722,119.599686 
	C423.975128,120.284126 422.841309,120.605202 421.353760,120.590851 
	C420.998352,119.511871 420.996735,118.768318 420.995117,118.024773 
z"/>
<path fill="#B7B8DB" opacity="1.000000" stroke="none" 
	d="
M430.907532,306.797852 
	C430.428802,307.013153 430.024170,307.012146 429.309631,307.005554 
	C428.999786,307.000000 428.983551,306.987335 428.983551,306.987335 
	C429.566376,306.541443 430.149200,306.095581 430.898682,305.890808 
	C431.065369,306.131958 430.981628,306.581543 430.907532,306.797852 
z"/>
<path fill="#E2E4F9" opacity="1.000000" stroke="none" 
	d="
M199.002441,316.367126 
	C199.773743,316.133301 200.682724,316.237946 201.789780,316.628815 
	C201.038605,316.845215 200.089371,316.775391 199.002441,316.367126 
z"/>
<path fill="#8081D4" opacity="1.000000" stroke="none" 
	d="
M437.832397,138.671539 
	C437.645416,138.422516 437.553802,137.831512 437.663452,137.077621 
	C437.885681,137.386337 437.906708,137.857956 437.832397,138.671539 
z"/>
<path fill="#ECEEFE" opacity="1.000000" stroke="none" 
	d="
M178.000000,299.001221 
	C177.555954,299.000824 177.111893,299.000427 176.334839,299.000000 
	C176.579544,297.644897 176.811295,295.921783 177.794220,294.997711 
	C182.339600,290.724518 187.046066,286.617737 191.785965,282.557770 
	C196.959671,278.126221 197.772629,271.852386 197.858414,265.902313 
	C198.201416,242.111328 197.875778,218.311279 198.106003,194.517578 
	C198.151459,189.822144 198.629028,184.690857 200.608154,180.579254 
	C202.545563,176.554291 202.875519,173.395874 200.999771,169.611526 
	C200.426514,168.455002 200.329590,167.062363 200.295212,165.229614 
	C200.762360,164.569672 200.948822,164.457977 201.571594,164.493271 
	C257.538513,164.687927 313.069183,164.728317 368.599823,164.788803 
	C381.067200,164.802383 393.534546,164.886230 406.010376,165.354584 
	C407.151093,170.032303 407.836395,174.160019 404.746185,178.094284 
	C403.955780,179.100586 404.030182,180.935242 404.028290,182.389725 
	C403.990662,211.167618 403.980408,239.945618 404.035950,268.723450 
	C404.040680,271.174347 404.993713,273.673401 404.730621,276.064728 
	C404.131439,281.510681 399.146973,284.925262 391.542542,284.957733 
	C366.591034,285.064362 341.635895,285.201294 316.688995,284.845917 
	C310.962708,284.764282 305.263794,282.761719 298.984894,281.532074 
	C299.246582,280.690186 299.248749,278.737152 300.112366,278.218536 
	C306.035370,274.661316 306.087860,268.646545 306.968384,262.527588 
	C306.992249,260.745941 307.012421,259.373932 307.384186,257.957520 
	C313.333649,253.735764 315.956390,248.096939 316.010376,241.170914 
	C316.021973,239.683853 315.856140,238.088303 316.319061,236.729034 
	C319.587708,227.132126 323.032867,217.595367 326.307770,208.000519 
	C326.603485,207.134140 326.095032,205.993286 325.965851,204.649872 
	C325.983154,203.879913 325.994629,203.439972 326.371948,202.920990 
	C329.034668,198.256256 328.379456,196.637161 323.424408,194.935974 
	C322.818207,194.143829 322.406006,193.549362 321.933899,192.720825 
	C321.706848,192.196869 321.470734,191.983337 320.966858,191.550171 
	C314.566010,187.438538 309.526428,189.685730 307.232269,196.859451 
	C303.140045,209.655426 298.775757,222.364349 294.529480,235.111069 
	C291.222931,245.036789 287.738739,254.910202 284.772430,264.936737 
	C284.167206,266.982605 285.518311,269.607239 286.111267,272.246674 
	C287.168549,273.389679 288.082092,274.251038 289.006378,275.495483 
	C289.573212,276.816956 290.010590,277.858704 290.714935,278.668091 
	C291.638000,279.728760 292.771790,280.606049 293.814941,281.562195 
	C292.367462,282.041321 290.923676,282.922974 289.471924,282.936218 
	C277.263489,283.047852 265.053619,283.000671 252.844193,283.000763 
	C239.887634,283.000885 226.930923,282.972321 213.974731,283.040161 
	C212.547760,283.047638 210.368408,283.131592 209.828552,283.990875 
	C207.448792,287.778717 203.806396,286.503998 200.510529,287.094208 
	C194.888992,288.100861 189.294678,289.548340 185.671127,295.143616 
	C182.895020,296.526062 180.447510,297.763641 178.000000,299.001221 
M332.194794,258.452332 
	C332.380859,258.715027 332.617126,258.919739 332.974548,259.081940 
	C332.974548,259.081940 333.006073,259.016541 333.108582,259.576233 
	C333.669250,260.059265 334.229950,260.542297 335.027344,261.603546 
	C335.685760,262.094177 336.344208,262.584808 337.371460,263.532471 
	C338.240387,263.434845 339.109344,263.337189 340.642792,263.089966 
	C341.094757,263.054443 341.546753,263.018921 342.124817,263.687866 
	C345.269806,267.013275 347.290771,263.426666 349.106659,262.115906 
	C356.629364,256.685883 363.988892,251.007050 371.123169,245.076477 
	C373.060486,243.465988 375.371063,240.813141 372.082489,237.152222 
	C371.741974,235.022125 371.401489,232.892029 371.096588,230.375336 
	C371.096588,230.375336 371.025757,229.993622 370.987549,229.300827 
	C361.598114,221.422104 352.397278,213.294708 342.642578,205.897720 
	C340.921021,204.592270 336.357941,205.475342 334.049927,206.888046 
	C331.019104,208.743195 329.753784,212.286682 332.168304,216.634781 
	C333.288025,217.822647 334.324066,219.105194 335.542145,220.181732 
	C340.395905,224.471436 345.306366,228.696976 350.146271,233.628342 
	C350.163361,234.083603 350.180481,234.538879 349.565002,235.283066 
	C344.552795,239.544556 339.538086,243.803055 334.529510,248.068817 
	C332.125153,250.116608 330.501190,252.451492 331.694641,256.297974 
	C331.694641,256.297974 331.742554,256.787842 331.463989,257.096985 
	C331.630981,257.403870 331.797943,257.710754 331.988251,258.001984 
	C331.988251,258.001984 331.984985,258.028839 332.194794,258.452332 
M264.319519,262.597717 
	C264.566589,262.814117 264.854340,262.925629 265.810577,262.952881 
	C266.216370,263.052094 266.622162,263.151337 267.202026,263.493195 
	C267.202026,263.493195 267.605682,263.589203 267.605682,263.589203 
	C267.605682,263.589203 267.952271,263.331116 268.747803,263.182343 
	C269.820740,263.063019 270.893646,262.943726 272.072906,263.538696 
	C275.524475,266.727142 276.840332,262.923920 277.553345,261.211578 
	C278.490784,258.960175 281.613037,255.440857 275.986603,253.446625 
	C275.678284,252.932541 275.369934,252.418442 274.972229,251.234467 
	C268.921783,245.822876 262.871338,240.411301 256.980499,234.308670 
	C261.797455,229.857986 266.459564,225.221222 271.494110,221.032013 
	C274.167999,218.807114 275.622742,216.465424 275.714050,212.706177 
	C275.779480,212.144287 275.844879,211.582397 275.754852,210.423645 
	C275.175110,209.602325 274.595337,208.781006 273.762970,207.328644 
	C272.506775,206.567734 271.250580,205.806824 269.544464,204.527954 
	C266.572632,205.678314 263.143494,206.230789 260.713379,208.089417 
	C252.947372,214.029114 245.399887,220.282578 238.097824,226.785217 
	C235.616653,228.994751 232.194382,231.718155 235.197922,236.700897 
	C237.489075,239.068893 239.780212,241.436905 242.579651,244.255692 
	C249.731888,250.245712 256.884125,256.235748 264.319519,262.597717 
z"/>
<path fill="#8C8BF1" opacity="1.000000" stroke="none" 
	d="
M201.135300,164.346283 
	C200.948822,164.457977 200.762360,164.569672 200.288147,164.834686 
	C196.291977,164.912338 192.583542,164.836685 188.129028,164.506897 
	C185.608749,164.116592 183.834534,163.980423 182.172089,163.655716 
	C182.480896,163.239944 182.722931,163.081390 183.384399,162.998154 
	C184.508347,162.996979 185.257828,162.989166 186.007324,162.981354 
	C187.828415,162.839005 189.649521,162.696655 192.139343,162.277664 
	C195.241577,161.741440 199.060303,162.724365 196.953964,157.992920 
	C193.980545,151.313782 193.923294,144.809952 197.076248,138.152237 
	C198.700333,134.722855 206.206589,128.613022 209.287582,129.094864 
	C217.886703,130.439697 226.793503,126.417152 235.303589,130.809906 
	C236.706390,131.534012 239.258133,129.615234 241.252029,129.685089 
	C248.948166,129.954697 256.628937,130.637558 264.323853,130.974625 
	C274.275513,131.410568 284.234406,131.690643 294.191620,131.988892 
	C317.102814,132.675201 340.015045,133.327240 362.926575,134.002625 
	C373.882935,134.325577 384.907776,134.045227 395.768127,135.245453 
	C402.008209,135.935089 407.262360,134.456589 412.391266,131.896683 
	C415.873108,130.158829 418.814484,127.338066 421.997559,125.001572 
	C422.107147,124.683060 422.297150,124.423401 422.784393,124.109962 
	C424.066650,123.998192 425.132080,123.999054 426.596924,123.998604 
	C426.845825,125.496239 426.695312,126.995171 425.910461,128.786194 
	C420.012054,131.386108 414.878967,134.082306 409.453674,135.912216 
	C400.966248,138.774963 392.247375,137.978607 383.412170,137.166351 
	C372.369843,136.151169 361.218750,136.271149 350.112000,136.015335 
	C333.185608,135.625458 316.258087,135.249527 299.328949,135.029099 
	C287.685516,134.877487 276.036865,134.890915 264.394348,135.073105 
	C261.388916,135.120132 258.397736,136.080856 256.044159,136.505600 
	C255.503464,139.083862 255.194016,140.559479 254.629654,141.816818 
	C252.235992,139.851883 250.296814,137.260056 247.880325,136.689377 
	C246.525238,136.369354 243.503784,139.058716 242.767517,140.980164 
	C241.064728,145.423950 244.661987,147.311829 247.752350,149.256409 
	C242.395187,149.729187 239.330124,146.449585 239.452957,141.084579 
	C239.481720,139.827408 238.988556,138.558289 238.735535,137.294678 
	C238.434113,137.391449 238.132706,137.488220 237.831284,137.585007 
	C236.608749,142.251297 235.386215,146.917587 234.228638,151.335922 
	C226.526245,151.518799 220.872070,150.380890 219.851486,141.717545 
	C219.511826,138.834335 216.816788,136.352127 212.699448,137.884766 
	C211.950027,137.533997 211.453369,137.294693 210.541763,137.028687 
	C203.332520,137.089111 202.909637,137.624817 202.698578,146.006226 
	C197.645309,149.306320 197.772705,150.046707 203.689941,153.191818 
	C202.370560,157.114975 202.180023,160.633621 207.499985,161.661835 
	C207.743515,161.708908 207.837982,162.527267 207.591522,162.992004 
	C205.165894,163.447189 203.150589,163.896744 201.135300,164.346283 
M223.452164,139.405762 
	C222.677322,142.936447 222.003189,146.589935 226.668503,147.860107 
	C229.776688,148.706329 233.110519,147.976685 234.109116,144.708084 
	C234.675217,142.855072 233.793823,139.820282 232.455826,138.281876 
	C229.818481,135.249496 226.613525,135.821228 223.452164,139.405762 
z"/>
<path fill="#9FA4FA" opacity="1.000000" stroke="none" 
	d="
M183.009949,162.991516 
	C182.722931,163.081390 182.480896,163.239944 181.966766,163.775650 
	C181.372452,164.249741 181.166550,164.479263 181.031921,164.772675 
	C180.594574,164.779724 180.157242,164.786774 179.398071,164.727448 
	C178.577713,164.129990 178.079178,163.598892 177.289398,162.594086 
	C177.322876,159.181168 178.445419,156.059937 177.823975,153.336670 
	C175.897644,144.894928 178.130554,137.601898 182.671616,130.684921 
	C186.087265,125.482185 189.282547,119.657944 196.308258,119.099739 
	C205.513123,118.368408 214.772552,118.323891 224.476624,117.986626 
	C256.625671,117.663765 288.306580,117.338234 320.044312,117.342300 
	C321.071869,117.452385 322.042572,117.232880 323.384583,117.012833 
	C324.498566,117.014084 325.241241,117.015869 326.085938,117.409142 
	C327.853943,118.200935 329.518982,118.945580 331.186066,118.950104 
	C358.065857,119.022995 384.945923,119.020020 411.825806,118.959236 
	C413.551636,118.955338 415.276123,118.339508 417.333344,118.003677 
	C418.108063,117.988235 418.550629,117.977478 418.993225,117.966713 
	C419.438202,117.977180 419.883179,117.987648 420.661621,118.011444 
	C420.996735,118.768318 420.998352,119.511871 421.000000,120.627556 
	C421.000000,120.999695 420.501282,121.002266 419.857391,121.009377 
	C411.719879,122.011192 404.249359,123.308807 396.723663,123.882385 
	C392.486023,124.205360 388.153625,123.017426 383.870575,123.068565 
	C375.584320,123.167519 367.302826,123.916649 359.019196,123.919319 
	C350.902344,123.921944 342.787567,123.251587 334.667847,123.016106 
	C310.276825,122.308731 285.887115,121.473068 261.490601,121.066681 
	C242.515427,120.750610 223.526947,120.797935 204.553192,121.153381 
	C200.095718,121.236885 194.708313,121.981232 191.420471,124.556160 
	C182.364563,131.648453 178.492874,151.946411 183.009949,162.991516 
z"/>
<path fill="#B6B8ED" opacity="1.000000" stroke="none" 
	d="
M181.241104,165.108002 
	C181.166550,164.479263 181.372452,164.249741 181.854980,163.964188 
	C183.834534,163.980423 185.608749,164.116592 187.666306,164.483276 
	C185.783188,164.956955 183.616730,165.200134 181.241104,165.108002 
z"/>
<path fill="#E7E9FC" opacity="1.000000" stroke="none" 
	d="
M178.000000,299.401367 
	C180.447510,297.763641 182.895020,296.526062 186.069229,295.135498 
	C195.186905,292.228180 203.701172,291.683380 212.582230,291.797089 
	C234.694412,292.080139 256.822021,291.433685 278.938568,290.942383 
	C286.107880,290.783112 293.396820,293.637878 300.492157,290.101105 
	C301.515991,289.590790 303.099213,290.188263 304.421783,290.294769 
	C307.222107,290.520203 310.026428,291.007843 312.820007,290.949860 
	C323.557037,290.727051 334.289917,290.096954 345.025391,290.072449 
	C353.980896,290.051971 362.938080,290.933350 371.894073,290.925171 
	C381.350525,290.916534 390.814331,290.457977 400.256134,289.885925 
	C402.227356,289.766479 404.582611,288.752380 405.959991,287.358948 
	C411.001862,282.258057 414.676605,277.328766 414.375458,268.720490 
	C413.379974,240.262070 413.926910,211.746826 414.054138,183.254166 
	C414.083923,176.581589 414.178009,170.079544 409.435242,164.877151 
	C411.915192,164.871368 413.959625,164.918152 416.004059,164.964920 
	C416.336060,201.896286 416.696533,238.827454 416.971619,275.759247 
	C417.016937,281.842804 415.831696,286.302032 409.312927,290.211456 
	C403.970337,293.415527 399.554321,294.173431 393.927734,294.087860 
	C377.610016,293.839783 361.283875,293.845459 344.965790,294.081635 
	C339.041687,294.167358 333.140991,295.349762 327.210022,295.706940 
	C324.451538,295.873077 321.646667,295.043030 318.862305,295.039215 
	C282.305878,294.989197 245.749252,294.968018 209.192963,295.052612 
	C204.404160,295.063690 199.601852,295.566071 194.832565,296.086395 
	C188.806213,296.743896 183.232574,298.650879 178.352982,302.964386 
	C178.002441,301.936279 178.001221,300.868896 178.000000,299.401367 
z"/>
<path fill="#DCDDF8" opacity="1.000000" stroke="none" 
	d="
M422.041870,165.308228 
	C423.074097,164.900360 424.144012,164.873535 425.609894,165.327972 
	C426.006378,167.537689 426.006836,169.266129 426.004517,171.434296 
	C426.336700,174.582840 426.671661,177.291656 427.005737,180.437958 
	C427.005341,182.917374 427.005829,184.959290 426.726868,187.260910 
	C426.298279,192.903763 426.030670,198.286667 426.020355,203.670090 
	C425.973785,228.000198 426.010254,252.330460 425.986694,276.660645 
	C425.983826,279.613251 426.365540,282.723663 425.594666,285.489380 
	C422.993805,294.820770 411.659271,302.971222 401.844879,302.995850 
	C393.733734,303.016205 385.621368,302.912689 377.511536,303.016968 
	C355.388336,303.301392 333.266968,303.762268 311.143127,303.942719 
	C304.355469,303.998108 297.563599,303.169617 290.771240,303.126740 
	C285.648285,303.094421 280.525024,303.790771 275.395416,303.939728 
	C270.149719,304.092072 264.895203,303.906769 259.646240,303.983673 
	C238.356750,304.295593 217.065414,304.548706 195.780884,305.072479 
	C191.174850,305.185852 186.594193,306.330414 182.001831,307.000000 
	C183.867538,301.336243 188.843536,301.131439 193.390732,301.080597 
	C211.048904,300.883179 228.711212,301.095978 246.370850,300.980865 
	C288.396606,300.706879 330.422119,300.379364 372.446686,299.964294 
	C381.904327,299.870911 391.360870,299.403351 400.812134,298.979614 
	C413.448486,298.413086 422.997772,288.321686 422.999176,275.672058 
	C423.001923,250.514359 423.093018,225.356140 422.958282,200.199173 
	C422.896667,188.694641 422.386383,177.192490 422.041870,165.308228 
z"/>
<path fill="#D6D7F5" opacity="1.000000" stroke="none" 
	d="
M182.003052,307.347992 
	C186.594193,306.330414 191.174850,305.185852 195.780884,305.072479 
	C217.065414,304.548706 238.356750,304.295593 259.646240,303.983673 
	C264.895203,303.906769 270.149719,304.092072 275.395416,303.939728 
	C280.525024,303.790771 285.648285,303.094421 290.771240,303.126740 
	C297.563599,303.169617 304.355469,303.998108 311.143127,303.942719 
	C333.266968,303.762268 355.388336,303.301392 377.511536,303.016968 
	C385.621368,302.912689 393.733734,303.016205 401.844879,302.995850 
	C411.659271,302.971222 422.993805,294.820770 425.594666,285.489380 
	C426.365540,282.723663 425.983826,279.613251 425.986694,276.660645 
	C426.010254,252.330460 425.973785,228.000198 426.020355,203.670090 
	C426.030670,198.286667 426.298279,192.903763 427.016541,187.560699 
	C427.713684,188.077942 427.953369,188.555008 427.953796,189.032257 
	C427.980469,220.324280 427.918182,251.616577 428.037842,282.908203 
	C428.075226,292.680481 417.797760,304.354309 409.452667,305.224731 
	C403.114044,305.885895 396.695984,305.871185 390.310272,305.979736 
	C367.881714,306.360901 345.452667,306.871796 323.022400,306.954407 
	C280.911407,307.109497 238.799438,306.987183 196.687973,307.043243 
	C194.791656,307.045746 192.896179,307.667755 191.000305,308.001221 
	C190.196259,308.249664 189.392212,308.498108 188.294388,308.873901 
	C186.773148,309.464783 185.545700,309.928314 184.155869,310.695068 
	C183.330429,309.897522 182.667358,308.796722 182.003052,307.347992 
z"/>
<path fill="#8081D4" opacity="1.000000" stroke="none" 
	d="
M416.412231,164.912231 
	C413.959625,164.918152 411.915192,164.871368 409.062134,164.826675 
	C407.502960,164.865082 406.752411,164.901398 406.001892,164.937729 
	C393.534546,164.886230 381.067200,164.802383 368.599823,164.788803 
	C313.069183,164.728317 257.538513,164.687927 201.571594,164.493271 
	C203.150589,163.896744 205.165894,163.447189 208.059982,162.997162 
	C275.954590,162.987427 342.970367,162.978180 409.986176,162.968948 
	C413.023285,162.977997 416.060425,162.987061 419.553040,162.994263 
	C420.007965,163.308945 420.016724,163.625214 420.047974,164.173462 
	C418.980835,164.557007 417.900604,164.708267 416.412231,164.912231 
z"/>
<path fill="#8F91F7" opacity="1.000000" stroke="none" 
	d="
M421.635712,125.040985 
	C418.814484,127.338066 415.873108,130.158829 412.391266,131.896683 
	C407.262360,134.456589 402.008209,135.935089 395.768127,135.245453 
	C384.907776,134.045227 373.882935,134.325577 362.926575,134.002625 
	C340.015045,133.327240 317.102814,132.675201 294.191620,131.988892 
	C284.234406,131.690643 274.275513,131.410568 264.323853,130.974625 
	C256.628937,130.637558 248.948166,129.954697 241.252029,129.685089 
	C239.258133,129.615234 236.706390,131.534012 235.303589,130.809906 
	C226.793503,126.417152 217.886703,130.439697 209.287582,129.094864 
	C206.206589,128.613022 198.700333,134.722855 197.076248,138.152237 
	C193.923294,144.809952 193.980545,151.313782 196.953964,157.992920 
	C199.060303,162.724365 195.241577,161.741440 192.406372,162.000824 
	C189.122940,152.347290 188.417969,142.682205 192.219498,133.112518 
	C192.717224,131.859528 193.999985,130.360947 195.204102,130.037735 
	C202.304703,128.131790 209.151306,124.265121 216.938980,126.774696 
	C217.858688,127.071068 218.919174,126.979706 219.914703,126.983459 
	C225.161911,127.003273 230.410400,126.924126 235.656265,127.011032 
	C253.773926,127.311150 271.890961,127.651932 290.007690,128.003983 
	C306.237122,128.319366 322.466125,128.657394 338.694794,129.008942 
	C353.174957,129.322601 367.655884,129.617508 382.133240,130.033279 
	C386.096344,130.147079 390.054871,130.598587 394.003235,131.012039 
	C403.755829,132.033356 412.750549,129.663101 421.635712,125.040985 
z"/>
<path fill="#999DF9" opacity="1.000000" stroke="none" 
	d="
M183.384399,162.998154 
	C178.492874,151.946411 182.364563,131.648453 191.420471,124.556160 
	C194.708313,121.981232 200.095718,121.236885 204.553192,121.153381 
	C223.526947,120.797935 242.515427,120.750610 261.490601,121.066681 
	C285.887115,121.473068 310.276825,122.308731 334.667847,123.016106 
	C342.787567,123.251587 350.902344,123.921944 359.019196,123.919319 
	C367.302826,123.916649 375.584320,123.167519 383.870575,123.068565 
	C388.153625,123.017426 392.486023,124.205360 396.723663,123.882385 
	C404.249359,123.308807 411.719879,122.011192 419.608032,121.010529 
	C417.652008,122.622955 415.513428,124.923759 412.911224,125.732185 
	C405.008514,128.187302 396.993713,128.682129 388.618164,127.333641 
	C381.961365,126.261879 375.005829,127.081978 368.183838,126.992981 
	C343.921753,126.676453 319.658203,126.427101 295.398651,125.970802 
	C265.516510,125.408722 235.638992,124.598854 205.756851,124.034927 
	C195.075470,123.833351 186.596283,130.416122 185.464020,140.729660 
	C184.695297,147.731888 185.758392,154.935211 186.004791,162.514984 
	C185.257828,162.989166 184.508347,162.996979 183.384399,162.998154 
z"/>
<path fill="#C3C5EE" opacity="1.000000" stroke="none" 
	d="
M432.997101,165.025482 
	C432.997101,165.025482 433.485992,164.926468 433.970215,165.013474 
	C434.619019,165.143921 434.783630,165.187347 434.966248,165.573395 
	C435.321472,166.943848 435.658691,167.971710 435.997345,169.468231 
	C435.998749,207.290466 435.998749,244.644012 435.998779,281.997559 
	C435.009949,285.747681 434.021088,289.497803 433.028564,293.874939 
	C433.024902,294.501953 433.029053,294.966858 433.029053,294.966858 
	C428.593750,302.201263 423.442688,308.618683 414.426086,310.653748 
	C416.406799,307.881805 418.705231,305.442749 421.252747,303.002563 
	C421.501831,303.001495 422.000000,302.998840 422.369934,302.990723 
	C423.493225,301.988403 424.246613,300.994202 425.054657,299.658234 
	C429.835419,295.597534 432.999359,291.034424 432.999023,284.752808 
	C432.997162,250.197220 432.997284,215.641617 432.996826,181.086029 
	C432.996735,175.732513 432.996979,170.378998 432.997101,165.025482 
z"/>
<path fill="#C3C5EE" opacity="1.000000" stroke="none" 
	d="
M411.002441,311.002441 
	C409.813965,311.876556 408.624268,313.516479 407.437225,313.514587 
	C356.934967,313.433624 306.432953,313.206390 255.561096,312.601440 
	C256.844025,311.803833 258.492279,311.077271 260.150208,311.054504 
	C268.720062,310.936798 277.293030,311.052490 285.863373,310.953857 
	C287.580139,310.934082 289.290253,310.337250 291.248169,309.910889 
	C294.995544,309.878082 298.498230,309.940857 302.250458,310.003693 
	C302.500000,310.003754 302.999115,310.003662 303.248901,310.004944 
	C303.498657,310.006256 303.998169,310.006897 304.298889,310.295959 
	C305.408600,310.722656 306.217468,310.980042 307.026550,310.980591 
	C337.121857,311.001404 367.217224,311.010284 397.312439,310.956757 
	C398.542206,310.954559 399.770844,310.334595 401.333374,310.002014 
	C402.111115,310.001068 402.555573,310.000519 403.281372,310.282776 
	C406.042633,310.711151 408.522522,310.856812 411.002441,311.002441 
z"/>
<path fill="#B7B8DB" opacity="1.000000" stroke="none" 
	d="
M436.259583,282.227753 
	C435.998749,244.644012 435.998749,207.290466 436.136505,169.153839 
	C436.503876,167.275314 436.733490,166.179840 437.194214,165.041046 
	C437.425293,164.997726 437.883606,164.892273 437.883606,164.892273 
	C437.922668,170.285202 437.961700,175.678116 438.026550,181.538940 
	C438.014130,216.674286 437.975922,251.341721 437.901123,286.468872 
	C437.416473,285.438385 436.968414,283.948181 436.259583,282.227753 
z"/>
<path fill="#CBCCF3" opacity="1.000000" stroke="none" 
	d="
M291.003448,310.006470 
	C289.290253,310.337250 287.580139,310.934082 285.863373,310.953857 
	C277.293030,311.052490 268.720062,310.936798 260.150208,311.054504 
	C258.492279,311.077271 256.844025,311.803833 255.091980,312.597961 
	C254.244156,312.991180 253.495621,312.992188 252.372650,312.990540 
	C248.629913,312.324768 245.261612,311.661682 241.543198,310.603821 
	C242.519714,309.806183 243.844254,309.061310 245.173309,309.053162 
	C259.063599,308.967682 272.954803,308.971924 286.845276,309.044189 
	C288.232941,309.051422 289.617462,309.671051 291.003448,310.006470 
z"/>
<path fill="#B7B8DB" opacity="1.000000" stroke="none" 
	d="
M306.685394,315.694946 
	C303.949463,315.993591 300.914825,316.004120 297.423096,316.039124 
	C270.291809,316.043182 243.617569,316.022736 216.475616,315.996765 
	C221.357758,315.657776 226.707611,315.324402 232.992065,314.994720 
	C238.954193,314.995270 243.981735,314.992157 249.009262,314.989014 
	C249.754578,314.990173 250.499908,314.991302 251.617615,314.990723 
	C268.311890,314.992676 284.633820,314.983673 300.955658,315.017822 
	C302.766266,315.021606 304.576355,315.271240 306.685394,315.694946 
z"/>
<path fill="#CBCCF3" opacity="1.000000" stroke="none" 
	d="
M411.376587,311.001465 
	C408.522522,310.856812 406.042633,310.711151 403.546082,310.006104 
	C405.836823,308.766357 408.196350,308.223633 410.439606,307.374054 
	C414.001740,306.024994 417.486298,304.470947 421.003662,303.003662 
	C418.705231,305.442749 416.406799,307.881805 414.051880,310.657379 
	C413.247192,310.996094 412.498962,310.998291 411.376587,311.001465 
z"/>
<path fill="#B7B8DB" opacity="1.000000" stroke="none" 
	d="
M326.711609,315.707458 
	C324.621704,315.985962 322.261597,315.989014 319.459961,315.986816 
	C321.492767,315.798370 323.967102,315.615173 326.711609,315.707458 
z"/>
<path fill="#B7B8DB" opacity="1.000000" stroke="none" 
	d="
M313.766968,315.723450 
	C312.922424,315.980499 311.866089,315.985199 310.413879,315.984528 
	C311.197052,315.809814 312.376129,315.640472 313.766968,315.723450 
z"/>
<path fill="#B7B8DB" opacity="1.000000" stroke="none" 
	d="
M429.006165,307.008057 
	C428.914917,307.044373 428.817291,307.072601 428.851624,307.044067 
	C428.983551,306.987335 428.999786,307.000000 429.006165,307.008057 
z"/>
<path fill="#B7B8DB" opacity="1.000000" stroke="none" 
	d="
M433.181274,294.883881 
	C433.029053,294.966858 433.024902,294.501953 433.030090,294.270081 
	C433.191559,294.193268 433.363159,294.337036 433.491882,294.512299 
	C433.519257,294.549622 433.390381,294.701691 433.181274,294.883881 
z"/>
<path fill="#AFB4F6" opacity="1.000000" stroke="none" 
	d="
M319.987488,117.012703 
	C288.306580,117.338234 256.625671,117.663765 224.376526,117.595238 
	C222.314392,116.801376 220.826447,116.084587 219.325516,116.056252 
	C212.549911,115.928299 205.770630,115.995224 198.992676,115.991943 
	C200.793808,115.328209 202.593323,114.090317 204.396332,114.085205 
	C243.376740,113.974548 282.357544,114.001640 321.338287,114.001785 
	C349.324463,114.001892 377.310699,113.978683 405.296661,114.053322 
	C407.134583,114.058235 408.970490,114.809509 410.603943,115.897514 
	C408.590240,116.720802 406.780090,116.979477 404.969574,116.981682 
	C378.641022,117.013832 352.312469,117.011642 325.983887,117.017654 
	C325.241241,117.015869 324.498566,117.014084 323.006256,117.007828 
	C321.500214,117.006470 320.743866,117.009583 319.987488,117.012703 
z"/>
<path fill="#A9ADFB" opacity="1.000000" stroke="none" 
	d="
M198.614746,116.038445 
	C205.770630,115.995224 212.549911,115.928299 219.325516,116.056252 
	C220.826447,116.084587 222.314392,116.801376 223.908417,117.592560 
	C214.772552,118.323891 205.513123,118.368408 196.308258,119.099739 
	C189.282547,119.657944 186.087265,125.482185 182.671616,130.684921 
	C178.130554,137.601898 175.897644,144.894928 177.823975,153.336670 
	C178.445419,156.059937 177.322876,159.181168 176.992279,162.554779 
	C175.661758,161.562439 173.169266,160.106644 173.203873,158.713654 
	C173.413086,150.294144 171.033127,141.747955 174.811081,133.430527 
	C176.325287,130.096863 177.227112,127.080795 180.902451,125.111122 
	C184.007187,123.447258 186.237717,120.182655 188.951660,117.733459 
	C189.495117,117.243004 190.474030,117.235039 191.875641,116.999481 
	C192.667450,116.993454 192.835754,116.992546 193.004059,116.991638 
	C194.748306,116.689407 196.492569,116.387177 198.614746,116.038445 
z"/>
<path fill="#A9ADFB" opacity="1.000000" stroke="none" 
	d="
M326.085938,117.409149 
	C352.312469,117.011642 378.641022,117.013832 404.969574,116.981682 
	C406.780090,116.979477 408.590240,116.720802 410.700287,116.291122 
	C412.387299,116.004601 413.774567,116.008362 415.602753,116.310333 
	C416.362854,117.075134 416.682037,117.541740 417.001221,118.008347 
	C415.276123,118.339508 413.551636,118.955338 411.825806,118.959236 
	C384.945923,119.020020 358.065857,119.022995 331.186066,118.950104 
	C329.518982,118.945580 327.853943,118.200935 326.085938,117.409149 
z"/>
<path fill="#AFB4F6" opacity="1.000000" stroke="none" 
	d="
M417.333344,118.003677 
	C416.682037,117.541740 416.362854,117.075134 416.018921,116.313934 
	C416.897369,116.479958 417.800568,116.940575 418.848511,117.683952 
	C418.550629,117.977478 418.108063,117.988235 417.333344,118.003677 
z"/>
<path fill="#AFB4F6" opacity="1.000000" stroke="none" 
	d="
M192.911896,116.831207 
	C192.835754,116.992546 192.667450,116.993454 192.246643,116.991333 
	C192.269348,116.882462 192.544540,116.776611 192.911896,116.831207 
z"/>
<path fill="#CFD0F4" opacity="1.000000" stroke="none" 
	d="
M421.252747,303.002563 
	C417.486298,304.470947 414.001740,306.024994 410.439606,307.374054 
	C408.196350,308.223633 405.836823,308.766357 403.264740,309.723358 
	C402.555573,310.000519 402.111115,310.001068 401.237854,309.609070 
	C399.139465,308.811035 397.462311,308.028015 395.801605,308.061462 
	C385.259521,308.273865 374.722748,308.865112 364.181030,308.956055 
	C345.851807,309.114166 327.520172,308.973114 309.189880,309.043945 
	C307.458099,309.050659 305.728668,309.671295 303.998169,310.006897 
	C303.998169,310.006897 303.498657,310.006256 303.158691,309.842712 
	C302.546112,309.787354 302.273529,309.895508 302.000916,310.003662 
	C298.498230,309.940857 294.995544,309.878082 291.248169,309.910889 
	C289.617462,309.671051 288.232941,309.051422 286.845276,309.044189 
	C272.954803,308.971924 259.063599,308.967682 245.173309,309.053162 
	C243.844254,309.061310 242.519714,309.806183 241.095856,310.602112 
	C235.962860,310.665405 230.927094,310.335724 225.176132,309.727020 
	C221.972839,309.634521 219.484741,309.821014 216.996658,310.007507 
	C213.943085,310.337158 210.889496,310.666809 207.346390,310.639893 
	C204.943542,308.521362 203.206497,307.958221 201.999130,310.997559 
	C199.958145,310.997711 197.917175,310.997833 195.438919,310.996552 
	C193.818451,310.170654 192.635254,309.346222 191.226166,308.261505 
	C192.896179,307.667755 194.791656,307.045746 196.687973,307.043243 
	C238.799438,306.987183 280.911407,307.109497 323.022400,306.954407 
	C345.452667,306.871796 367.881714,306.360901 390.310272,305.979736 
	C396.695984,305.871185 403.114044,305.885895 409.452667,305.224731 
	C417.797760,304.354309 428.075226,292.680481 428.037842,282.908203 
	C427.918182,251.616577 427.980469,220.324280 427.953796,189.032257 
	C427.953369,188.555008 427.713684,188.077942 427.296021,187.300995 
	C427.005829,184.959290 427.005341,182.917374 427.286682,180.155930 
	C427.659424,176.509399 429.735077,173.215347 426.007324,170.994568 
	C426.006836,169.266129 426.006378,167.537689 426.009277,165.375214 
	C428.051117,164.935059 430.089569,164.928955 432.562561,164.974167 
	C432.996979,170.378998 432.996735,175.732513 432.996826,181.086029 
	C432.997284,215.641617 432.997162,250.197220 432.999023,284.752808 
	C432.999359,291.034424 429.835419,295.597534 424.715546,299.695007 
	C423.547852,301.048615 422.773926,302.023743 422.000000,302.998840 
	C422.000000,302.998840 421.501831,303.001495 421.252747,303.002563 
z"/>
<path fill="#8081D4" opacity="1.000000" stroke="none" 
	d="
M437.969543,164.438995 
	C437.883606,164.892273 437.425293,164.997726 436.856995,165.023163 
	C435.841888,165.109329 435.395050,165.170044 434.948212,165.230774 
	C434.783630,165.187347 434.619019,165.143921 434.219238,165.000168 
	C434.774170,159.450729 435.592682,154.005493 436.341553,148.550690 
	C436.678284,146.097809 436.875824,143.625809 437.503021,141.026031 
	C437.931488,148.588287 437.993500,156.287018 437.969543,164.438995 
z"/>
<path fill="#8585F4" opacity="1.000000" stroke="none" 
	d="
M409.991821,162.567749 
	C342.970367,162.978180 275.954590,162.987427 208.470322,162.991531 
	C207.837982,162.527267 207.743515,161.708908 207.499985,161.661835 
	C202.180023,160.633621 202.370560,157.114975 203.689941,153.191818 
	C197.772705,150.046707 197.645309,149.306320 202.947174,146.039093 
	C203.722122,146.046036 203.887802,146.071106 204.208557,146.394455 
	C208.135696,150.616180 210.820450,150.973145 213.790314,147.623596 
	C216.433685,144.642242 216.688629,141.600555 213.043259,138.757889 
	C212.992065,138.334793 212.972137,138.165497 212.952225,137.996216 
	C216.816788,136.352127 219.511826,138.834335 219.851486,141.717545 
	C220.872070,150.380890 226.526245,151.518799 234.228638,151.335922 
	C235.386215,146.917587 236.608749,142.251297 237.831284,137.585007 
	C238.132706,137.488220 238.434113,137.391449 238.735535,137.294678 
	C238.988556,138.558289 239.481720,139.827408 239.452957,141.084579 
	C239.330124,146.449585 242.395187,149.729187 248.103241,149.216736 
	C249.783951,148.547348 250.885391,148.186554 252.336975,147.876801 
	C255.215500,147.592941 256.341431,146.483841 254.872147,143.629639 
	C254.868561,142.885498 254.876556,142.460297 254.884552,142.035095 
	C255.194016,140.559479 255.503464,139.083862 256.044159,136.505600 
	C258.397736,136.080856 261.388916,135.120132 264.394348,135.073105 
	C276.036865,134.890915 287.685516,134.877487 299.328949,135.029099 
	C316.258087,135.249527 333.185608,135.625458 350.112000,136.015335 
	C361.218750,136.271149 372.369843,136.151169 383.412170,137.166351 
	C392.247375,137.978607 400.966248,138.774963 409.453674,135.912216 
	C414.878967,134.082306 420.012054,131.386108 425.635376,129.039154 
	C423.967285,131.391052 421.968750,133.807419 419.897369,136.159653 
	C419.152649,137.005371 417.773651,137.545349 417.464722,138.482239 
	C414.872833,146.343109 412.462494,154.263840 409.991821,162.567749 
z"/>
<path fill="#BCBDE7" opacity="1.000000" stroke="none" 
	d="
M248.909515,314.597565 
	C243.981735,314.992157 238.954193,314.995270 233.458832,314.993774 
	C233.309723,314.441742 233.646561,313.408234 233.944473,313.419342 
	C238.902466,313.604065 243.855576,313.919678 248.909515,314.597565 
z"/>
<path fill="#CBCCF3" opacity="1.000000" stroke="none" 
	d="
M217.084518,310.384033 
	C219.484741,309.821014 221.972839,309.634521 224.732162,309.727722 
	C222.706970,313.522614 219.966248,312.417877 217.084518,310.384033 
z"/>
<path fill="#CBCCF3" opacity="1.000000" stroke="none" 
	d="
M202.415924,310.999084 
	C203.206497,307.958221 204.943542,308.521362 206.928741,310.640442 
	C205.611313,310.998596 204.222015,310.999634 202.415924,310.999084 
z"/>
<path fill="#BCBDE7" opacity="1.000000" stroke="none" 
	d="
M208.960266,314.663208 
	C208.149063,314.828247 207.286240,314.673584 206.211700,314.262024 
	C206.969543,314.117920 207.939102,314.230713 208.960266,314.663208 
z"/>
<path fill="#E9ECFD" opacity="1.000000" stroke="none" 
	d="
M406.010376,165.354584 
	C406.752411,164.901398 407.502960,164.865082 408.626587,164.879227 
	C414.178009,170.079544 414.083923,176.581589 414.054138,183.254166 
	C413.926910,211.746826 413.379974,240.262070 414.375458,268.720490 
	C414.676605,277.328766 411.001862,282.258057 405.959991,287.358948 
	C404.582611,288.752380 402.227356,289.766479 400.256134,289.885925 
	C390.814331,290.457977 381.350525,290.916534 371.894073,290.925171 
	C362.938080,290.933350 353.980896,290.051971 345.025391,290.072449 
	C334.289917,290.096954 323.557037,290.727051 312.820007,290.949860 
	C310.026428,291.007843 307.222107,290.520203 304.421783,290.294769 
	C303.099213,290.188263 301.515991,289.590790 300.492157,290.101105 
	C293.396820,293.637878 286.107880,290.783112 278.938568,290.942383 
	C256.822021,291.433685 234.694412,292.080139 212.582230,291.797089 
	C203.701172,291.683380 195.186905,292.228180 186.397842,294.990662 
	C189.294678,289.548340 194.888992,288.100861 200.510529,287.094208 
	C203.806396,286.503998 207.448792,287.778717 209.828552,283.990875 
	C210.368408,283.131592 212.547760,283.047638 213.974731,283.040161 
	C226.930923,282.972321 239.887634,283.000885 252.844193,283.000763 
	C265.053619,283.000671 277.263489,283.047852 289.471924,282.936218 
	C290.923676,282.922974 292.367462,282.041321 293.814941,281.562195 
	C292.771790,280.606049 291.638000,279.728760 290.714935,278.668091 
	C290.010590,277.858704 289.573212,276.816956 289.417297,275.428894 
	C291.456757,274.897430 293.095947,274.815674 295.075012,274.920532 
	C299.810120,276.296875 301.786743,274.957825 303.060028,270.871979 
	C303.926544,268.091461 305.633545,265.572937 306.964752,262.937256 
	C306.087860,268.646545 306.035370,274.661316 300.112366,278.218536 
	C299.248749,278.737152 299.246582,280.690186 298.984894,281.532074 
	C305.263794,282.761719 310.962708,284.764282 316.688995,284.845917 
	C341.635895,285.201294 366.591034,285.064362 391.542542,284.957733 
	C399.146973,284.925262 404.131439,281.510681 404.730621,276.064728 
	C404.993713,273.673401 404.040680,271.174347 404.035950,268.723450 
	C403.980408,239.945618 403.990662,211.167618 404.028290,182.389725 
	C404.030182,180.935242 403.955780,179.100586 404.746185,178.094284 
	C407.836395,174.160019 407.151093,170.032303 406.010376,165.354584 
z"/>
<path fill="#9799F1" opacity="1.000000" stroke="none" 
	d="
M332.119049,215.955521 
	C329.753784,212.286682 331.019104,208.743195 334.049927,206.888046 
	C336.357941,205.475342 340.921021,204.592270 342.642578,205.897720 
	C352.397278,213.294708 361.598114,221.422104 370.722412,229.855225 
	C369.066895,231.186340 367.459167,231.728485 366.323669,232.780365 
	C361.419128,237.323807 356.985870,242.441910 351.747772,246.541779 
	C345.855560,251.153625 339.282806,254.895981 333.006073,259.016541 
	C333.006073,259.016541 332.974548,259.081940 332.877869,258.832550 
	C332.601807,258.274811 332.336426,258.090027 331.984985,258.028839 
	C331.984985,258.028839 331.988251,258.001984 331.948792,257.697327 
	C331.853729,257.191040 331.798126,256.989441 331.742554,256.787842 
	C331.742554,256.787842 331.694641,256.297974 332.059204,256.098206 
	C332.948029,255.596527 333.472290,255.294601 334.362793,254.989716 
	C338.484955,251.988602 342.240875,248.990448 346.258575,245.799591 
	C347.673401,244.733154 348.826477,243.859421 350.348236,242.985870 
	C352.574005,241.724686 354.580505,240.627640 356.224976,239.132416 
	C357.044403,238.387390 357.200836,236.913239 357.657135,235.768890 
	C356.107086,235.509445 354.557068,235.249985 352.654358,234.991287 
	C351.600311,234.992737 350.898956,234.993439 350.197571,234.994141 
	C350.180481,234.538879 350.163361,234.083603 350.507690,233.220184 
	C353.345947,229.787201 351.166718,228.144119 349.028625,226.412109 
	C345.432678,223.499100 341.487946,220.876404 338.459167,217.451324 
	C336.333130,215.047073 334.683685,214.587967 332.119049,215.955521 
z"/>
<path fill="#A4A5F4" opacity="1.000000" stroke="none" 
	d="
M285.967590,271.965057 
	C285.518311,269.607239 284.167206,266.982605 284.772430,264.936737 
	C287.738739,254.910202 291.222931,245.036789 294.529480,235.111069 
	C298.775757,222.364349 303.140045,209.655426 307.232269,196.859451 
	C309.526428,189.685730 314.566010,187.438538 320.901611,191.612488 
	C321.035065,191.970779 320.910675,192.096130 320.570190,192.105408 
	C318.736633,193.580475 316.610657,194.780304 315.863007,196.559372 
	C313.031647,203.296646 310.471741,210.162430 308.131958,217.088806 
	C303.306915,231.372253 298.779205,245.756363 293.925476,260.029816 
	C292.599396,263.929413 291.993866,268.585846 286.774109,270.238159 
	C286.344727,270.914032 286.156158,271.439545 285.967590,271.965057 
z"/>
<path fill="#9799F1" opacity="1.000000" stroke="none" 
	d="
M242.071350,243.804901 
	C239.780212,241.436905 237.489075,239.068893 235.533066,236.364838 
	C236.577362,236.012939 237.286514,235.997070 238.042816,236.296326 
	C238.944321,236.261871 240.171967,236.150223 240.577179,235.514404 
	C241.487579,234.086014 241.569611,231.927094 242.727661,230.892578 
	C249.325806,224.998489 255.960114,219.112610 262.962616,213.717789 
	C266.202606,211.221664 270.304443,209.844284 274.015564,207.959686 
	C274.595337,208.781006 275.175110,209.602325 275.496948,210.752014 
	C272.507568,211.798645 268.215576,209.615448 267.744843,214.991302 
	C267.505310,215.000305 267.026123,215.013657 266.658081,215.011902 
	C265.143280,215.557724 263.813416,215.891113 262.880219,216.688629 
	C257.924072,220.924362 253.006454,225.211090 248.236298,229.652863 
	C247.442108,230.392380 246.775833,232.527222 247.214645,233.062027 
	C248.040543,234.068588 249.715042,234.378845 251.452835,234.976822 
	C253.519577,234.983276 255.170242,234.991501 256.820892,234.999725 
	C262.871338,240.411301 268.921783,245.822876 274.773254,251.756348 
	C274.395172,252.847198 274.216034,253.416153 273.803711,254.267090 
	C271.278748,254.734604 268.698608,255.667633 266.766022,254.922104 
	C264.176727,253.923248 263.650269,249.224411 259.453491,250.394882 
	C256.429565,244.503098 250.651993,243.354294 244.687897,242.024338 
	C243.611816,242.634094 242.841583,243.219498 242.071350,243.804901 
z"/>
<path fill="#CFD0F4" opacity="1.000000" stroke="none" 
	d="
M306.968384,262.527588 
	C305.633545,265.572937 303.926544,268.091461 303.060028,270.871979 
	C301.786743,274.957825 299.810120,276.296875 295.335297,274.697296 
	C296.561523,273.084473 298.554199,272.118805 299.064667,270.641083 
	C303.253510,258.515381 307.166504,246.294357 311.417969,233.858459 
	C312.405029,231.766647 313.205780,229.942413 313.858307,228.066635 
	C317.229950,218.374237 320.563660,208.668655 324.190399,199.152542 
	C324.982147,200.558273 325.494110,201.779160 326.006104,203.000031 
	C325.994629,203.439972 325.983154,203.879913 325.655914,204.822327 
	C322.573090,212.186066 319.494568,218.941162 317.111633,225.933304 
	C313.498138,236.536362 310.368073,247.304153 307.032593,258.001953 
	C307.012421,259.373932 306.992249,260.745941 306.968384,262.527588 
z"/>
<path fill="#7D7CD9" opacity="1.000000" stroke="none" 
	d="
M256.900696,234.654205 
	C255.170242,234.991501 253.519577,234.983276 251.450012,234.608292 
	C252.483032,231.939468 253.676163,229.412537 255.440598,227.382019 
	C259.143280,223.120941 263.146362,219.120880 267.026123,215.013657 
	C267.026123,215.013657 267.505310,215.000305 268.115814,214.957443 
	C270.893463,214.285507 273.060638,213.656418 275.227814,213.027344 
	C275.622742,216.465424 274.167999,218.807114 271.494110,221.032013 
	C266.459564,225.221222 261.797455,229.857986 256.900696,234.654205 
z"/>
<path fill="#E9ECFD" opacity="1.000000" stroke="none" 
	d="
M307.384186,257.957520 
	C310.368073,247.304153 313.498138,236.536362 317.111633,225.933304 
	C319.494568,218.941162 322.573090,212.186066 325.650085,205.152344 
	C326.095032,205.993286 326.603485,207.134140 326.307770,208.000519 
	C323.032867,217.595367 319.587708,227.132126 316.319061,236.729034 
	C315.856140,238.088303 316.021973,239.683853 316.010376,241.170914 
	C315.956390,248.096939 313.333649,253.735764 307.384186,257.957520 
z"/>
<path fill="#B6B8ED" opacity="1.000000" stroke="none" 
	d="
M237.995667,235.981216 
	C237.286514,235.997070 236.577362,236.012939 235.516525,236.027496 
	C232.194382,231.718155 235.616653,228.994751 238.097824,226.785217 
	C245.399887,220.282578 252.947372,214.029114 260.713379,208.089417 
	C263.143494,206.230789 266.572632,205.678314 269.627197,205.098114 
	C267.257202,207.494415 264.717438,209.215759 262.368134,211.166428 
	C255.414429,216.940216 248.718643,223.044556 241.536194,228.512878 
	C238.742615,230.639740 237.638733,232.756973 237.995667,235.981216 
z"/>
<path fill="#7D7CD9" opacity="1.000000" stroke="none" 
	d="
M337.002625,263.075439 
	C336.344208,262.584808 335.685760,262.094177 335.321625,261.296082 
	C339.006378,259.226685 342.792664,257.955200 345.706848,255.603165 
	C352.236542,250.332993 358.320435,244.511780 364.621155,238.954941 
	C365.348907,238.313065 366.251709,237.805145 367.156036,237.439713 
	C370.209351,236.205841 371.344177,233.914230 371.060974,230.761932 
	C371.401489,232.892029 371.741974,235.022125 371.765625,237.736694 
	C361.632111,246.541901 351.815430,254.762650 341.998718,262.983398 
	C341.546753,263.018921 341.094757,263.054443 339.944214,263.088013 
	C338.497955,263.082489 337.750305,263.078949 337.002625,263.075439 
z"/>
<path fill="#8585F4" opacity="1.000000" stroke="none" 
	d="
M371.078796,230.568634 
	C371.344177,233.914230 370.209351,236.205841 367.156036,237.439713 
	C366.251709,237.805145 365.348907,238.313065 364.621155,238.954941 
	C358.320435,244.511780 352.236542,250.332993 345.706848,255.603165 
	C342.792664,257.955200 339.006378,259.226685 335.203278,261.006958 
	C334.229950,260.542297 333.669250,260.059265 333.057312,259.296387 
	C339.282806,254.895981 345.855560,251.153625 351.747772,246.541779 
	C356.985870,242.441910 361.419128,237.323807 366.323669,232.780365 
	C367.459167,231.728485 369.066895,231.186340 370.741516,230.201630 
	C371.025757,229.993622 371.096588,230.375336 371.078796,230.568634 
z"/>
<path fill="#D6D7F5" opacity="1.000000" stroke="none" 
	d="
M342.061768,263.335632 
	C351.815430,254.762650 361.632111,246.541901 371.742676,238.162598 
	C375.371063,240.813141 373.060486,243.465988 371.123169,245.076477 
	C363.988892,251.007050 356.629364,256.685883 349.106659,262.115906 
	C347.290771,263.426666 345.269806,267.013275 342.061768,263.335632 
z"/>
<path fill="#7D7CD9" opacity="1.000000" stroke="none" 
	d="
M311.163208,234.102264 
	C307.166504,246.294357 303.253510,258.515381 299.064667,270.641083 
	C298.554199,272.118805 296.561523,273.084473 294.995483,274.510681 
	C293.095947,274.815674 291.456757,274.897430 289.406616,275.045837 
	C288.082092,274.251038 287.168549,273.389679 286.111298,272.246674 
	C286.156158,271.439545 286.344727,270.914032 286.959198,270.546509 
	C289.249023,271.128632 291.112915,271.552795 293.327667,271.947021 
	C295.556702,269.708832 298.028839,267.766754 299.166840,265.226898 
	C300.682831,261.843536 300.797272,257.852356 302.161621,254.376556 
	C304.864502,247.490753 308.011292,240.779236 311.021851,234.022156 
	C311.069092,234.048630 311.163208,234.102264 311.163208,234.102264 
z"/>
<path fill="#AFB4F6" opacity="1.000000" stroke="none" 
	d="
M349.881287,235.138611 
	C350.898956,234.993439 351.600311,234.992737 352.651947,235.374405 
	C351.994659,238.166412 350.987122,240.576050 349.979553,242.985687 
	C348.826477,243.859421 347.673401,244.733154 345.886993,245.806366 
	C341.501282,249.001465 337.748932,251.997070 333.996552,254.992676 
	C333.472290,255.294601 332.948029,255.596527 332.099121,255.855362 
	C330.501190,252.451492 332.125153,250.116608 334.529510,248.068817 
	C339.538086,243.803055 344.552795,239.544556 349.881287,235.138611 
z"/>
<path fill="#A4A5F4" opacity="1.000000" stroke="none" 
	d="
M238.042816,236.296326 
	C237.638733,232.756973 238.742615,230.639740 241.536194,228.512878 
	C248.718643,223.044556 255.414429,216.940216 262.368134,211.166428 
	C264.717438,209.215759 267.257202,207.494415 269.852142,205.357086 
	C271.250580,205.806824 272.506775,206.567734 273.889282,207.644165 
	C270.304443,209.844284 266.202606,211.221664 262.962616,213.717789 
	C255.960114,219.112610 249.325806,224.998489 242.727661,230.892578 
	C241.569611,231.927094 241.487579,234.086014 240.577179,235.514404 
	C240.171967,236.150223 238.944321,236.261871 238.042816,236.296326 
z"/>
<path fill="#8081D4" opacity="1.000000" stroke="none" 
	d="
M242.325500,244.030289 
	C242.841583,243.219498 243.611816,242.634094 244.726135,242.371506 
	C251.669388,248.387421 257.844055,254.706650 265.009491,259.564453 
	C270.215820,263.094086 274.366180,259.981049 274.036865,253.985107 
	C274.216034,253.416153 274.395172,252.847198 274.817963,252.091278 
	C275.369934,252.418442 275.678284,252.932541 276.047516,254.101685 
	C274.727814,257.445984 273.347198,260.135193 271.966583,262.824432 
	C270.893646,262.943726 269.820740,263.063019 268.123322,263.187500 
	C267.498840,263.192657 267.027954,263.250580 267.027954,263.250580 
	C266.622162,263.151337 266.216370,263.052094 265.350159,262.757660 
	C264.651398,262.333282 264.366943,262.221039 264.036377,262.225769 
	C256.884125,256.235748 249.731888,250.245712 242.325500,244.030289 
z"/>
<path fill="#8081D4" opacity="1.000000" stroke="none" 
	d="
M323.910645,198.967682 
	C320.563660,208.668655 317.229950,218.374237 313.858307,228.066635 
	C313.205780,229.942413 312.405029,231.766647 311.417938,233.858459 
	C311.163208,234.102264 311.069092,234.048630 311.028961,233.599457 
	C312.681335,226.516678 314.313934,219.867035 316.084412,213.254333 
	C317.632660,207.471680 319.335999,201.730560 320.976257,195.597046 
	C320.986694,194.474045 320.991699,193.725098 321.246155,192.979126 
	C321.495605,192.982101 321.993835,192.954895 321.993835,192.954895 
	C322.406006,193.549362 322.818207,194.143829 323.473694,195.317520 
	C323.781555,196.920395 323.846100,197.944031 323.910645,198.967682 
z"/>
<path fill="#8081D4" opacity="1.000000" stroke="none" 
	d="
M332.143677,216.295151 
	C334.683685,214.587967 336.333130,215.047073 338.459167,217.451324 
	C341.487946,220.876404 345.432678,223.499100 349.028625,226.412109 
	C351.166718,228.144119 353.345947,229.787201 350.532471,232.879150 
	C345.306366,228.696976 340.395905,224.471436 335.542145,220.181732 
	C334.324066,219.105194 333.288025,217.822647 332.143677,216.295151 
z"/>
<path fill="#E2E4F9" opacity="1.000000" stroke="none" 
	d="
M272.019745,263.181580 
	C273.347198,260.135193 274.727814,257.445984 276.194214,254.362167 
	C281.613037,255.440857 278.490784,258.960175 277.553345,261.211578 
	C276.840332,262.923920 275.524475,266.727142 272.019745,263.181580 
z"/>
<path fill="#E9ECFD" opacity="1.000000" stroke="none" 
	d="
M324.190369,199.152542 
	C323.846100,197.944031 323.781555,196.920395 323.667725,195.515198 
	C328.379456,196.637161 329.034668,198.256256 326.371948,202.920990 
	C325.494110,201.779160 324.982147,200.558273 324.190369,199.152542 
z"/>
<path fill="#8C8BF1" opacity="1.000000" stroke="none" 
	d="
M275.470947,212.866760 
	C273.060638,213.656418 270.893463,214.285507 268.355347,214.948456 
	C268.215576,209.615448 272.507568,211.798645 275.574677,211.050461 
	C275.844879,211.582397 275.779480,212.144287 275.470947,212.866760 
z"/>
<path fill="#D6D7F5" opacity="1.000000" stroke="none" 
	d="
M337.187042,263.303955 
	C337.750305,263.078949 338.497955,263.082489 339.611938,263.162781 
	C339.109344,263.337189 338.240387,263.434845 337.187042,263.303955 
z"/>
<path fill="#A4A5F4" opacity="1.000000" stroke="none" 
	d="
M321.933899,192.720825 
	C321.993835,192.954895 321.495605,192.982101 321.233826,192.758362 
	C320.972076,192.534637 320.910675,192.096130 320.910675,192.096130 
	C320.910675,192.096130 321.035065,191.970779 321.100342,191.908463 
	C321.470734,191.983337 321.706848,192.196869 321.933899,192.720825 
z"/>
<path fill="#AFB4F6" opacity="1.000000" stroke="none" 
	d="
M331.603271,256.942413 
	C331.798126,256.989441 331.853729,257.191040 331.937134,257.705139 
	C331.797943,257.710754 331.630981,257.403870 331.603271,256.942413 
z"/>
<path fill="#AFB4F6" opacity="1.000000" stroke="none" 
	d="
M332.089905,258.240601 
	C332.336426,258.090027 332.601807,258.274811 332.842377,258.824829 
	C332.617126,258.919739 332.380859,258.715027 332.089905,258.240601 
z"/>
<path fill="#E2E4F9" opacity="1.000000" stroke="none" 
	d="
M264.177948,262.411743 
	C264.366943,262.221039 264.651398,262.333282 265.036316,262.747375 
	C264.854340,262.925629 264.566589,262.814117 264.177948,262.411743 
z"/>
<path fill="#E2E4F9" opacity="1.000000" stroke="none" 
	d="
M267.114990,263.371887 
	C267.027954,263.250580 267.498840,263.192657 267.725555,263.261902 
	C267.952271,263.331116 267.605682,263.589203 267.605682,263.589203 
	C267.605682,263.589203 267.202026,263.493195 267.114990,263.371887 
z"/>
<path fill="#DE80C2" opacity="1.000000" stroke="none" 
	d="
M251.986816,147.825745 
	C250.885391,148.186554 249.783951,148.547348 248.331635,148.947815 
	C244.661987,147.311829 241.064728,145.423950 242.767517,140.980164 
	C243.503784,139.058716 246.525238,136.369354 247.880325,136.689377 
	C250.296814,137.260056 252.235992,139.851883 254.629654,141.816818 
	C254.876556,142.460297 254.868561,142.885498 254.633713,143.818924 
	C253.600174,145.493347 252.793488,146.659546 251.986816,147.825745 
z"/>
<path fill="#EAC287" opacity="1.000000" stroke="none" 
	d="
M223.682449,139.087982 
	C226.613525,135.821228 229.818481,135.249496 232.455826,138.281876 
	C233.793823,139.820282 234.675217,142.855072 234.109116,144.708084 
	C233.110519,147.976685 229.776688,148.706329 226.668503,147.860107 
	C222.003189,146.589935 222.677322,142.936447 223.682449,139.087982 
z"/>
<path fill="#9FA4FA" opacity="1.000000" stroke="none" 
	d="
M212.699448,137.884766 
	C212.972137,138.165497 212.992065,138.334793 212.876770,139.050110 
	C210.160233,141.712296 207.578873,143.828506 204.997375,145.552048 
	C204.244080,140.443390 208.767990,139.608002 210.956726,137.055374 
	C211.453369,137.294693 211.950027,137.533997 212.699448,137.884766 
z"/>
<path fill="#A9ADFB" opacity="1.000000" stroke="none" 
	d="
M210.541763,137.028687 
	C208.767990,139.608002 204.244080,140.443390 204.761414,145.590637 
	C204.525635,146.021881 204.053467,146.096161 204.053467,146.096161 
	C203.887802,146.071106 203.722122,146.046036 203.307846,145.988098 
	C202.909637,137.624817 203.332520,137.089111 210.541763,137.028687 
z"/>
<path fill="#A9ADFB" opacity="1.000000" stroke="none" 
	d="
M320.044312,117.342300 
	C320.743866,117.009583 321.500214,117.006470 322.634949,117.008362 
	C322.042572,117.232880 321.071869,117.452385 320.044312,117.342300 
z"/>
<path fill="#D6D7F5" opacity="1.000000" stroke="none" 
	d="
M426.004517,171.434296 
	C429.735077,173.215347 427.659424,176.509399 427.287598,179.718430 
	C426.671661,177.291656 426.336700,174.582840 426.004517,171.434296 
z"/>
<path fill="#CBCCF3" opacity="1.000000" stroke="none" 
	d="
M422.369934,302.990723 
	C422.773926,302.023743 423.547852,301.048615 424.660889,300.036743 
	C424.246613,300.994202 423.493225,301.988403 422.369934,302.990723 
z"/>
<path fill="#B6B8ED" opacity="1.000000" stroke="none" 
	d="
M434.966248,165.573395 
	C435.395050,165.170044 435.841888,165.109329 436.625916,165.066498 
	C436.733490,166.179840 436.503876,167.275314 436.135101,168.685165 
	C435.658691,167.971710 435.321472,166.943848 434.966248,165.573395 
z"/>
<path fill="#CBCCF3" opacity="1.000000" stroke="none" 
	d="
M304.298889,310.295990 
	C305.728668,309.671295 307.458099,309.050659 309.189880,309.043945 
	C327.520172,308.973114 345.851807,309.114166 364.181030,308.956055 
	C374.722748,308.865112 385.259521,308.273865 395.801605,308.061462 
	C397.462311,308.028015 399.139465,308.811035 400.904541,309.609497 
	C399.770844,310.334595 398.542206,310.954559 397.312439,310.956757 
	C367.217224,311.010284 337.121857,311.001404 307.026550,310.980591 
	C306.217468,310.980042 305.408600,310.722656 304.298889,310.295990 
z"/>
<path fill="#CBCCF3" opacity="1.000000" stroke="none" 
	d="
M302.250458,310.003723 
	C302.273529,309.895508 302.546112,309.787354 302.908936,309.841431 
	C302.999115,310.003662 302.500000,310.003754 302.250458,310.003723 
z"/>
<path fill="#7D7DEC" opacity="1.000000" stroke="none" 
	d="
M204.208557,146.394455 
	C204.053467,146.096161 204.525635,146.021881 204.761581,145.983292 
	C207.578873,143.828506 210.160233,141.712296 212.908051,139.303894 
	C216.688629,141.600555 216.433685,144.642242 213.790314,147.623596 
	C210.820450,150.973145 208.135696,150.616180 204.208557,146.394455 
z"/>
<path fill="#8C8BF1" opacity="1.000000" stroke="none" 
	d="
M252.336960,147.876801 
	C252.793488,146.659546 253.600174,145.493347 254.645294,144.137848 
	C256.341431,146.483841 255.215500,147.592941 252.336960,147.876801 
z"/>
<path fill="#9FA4FA" opacity="1.000000" stroke="none" 
	d="
M350.348236,242.985870 
	C350.987122,240.576050 351.994659,238.166412 353.004608,235.373657 
	C354.557068,235.249985 356.107086,235.509445 357.657135,235.768890 
	C357.200836,236.913239 357.044403,238.387390 356.224976,239.132416 
	C354.580505,240.627640 352.574005,241.724686 350.348236,242.985870 
z"/>
<path fill="#9FA4FA" opacity="1.000000" stroke="none" 
	d="
M334.362793,254.989716 
	C337.748932,251.997070 341.501282,249.001465 345.625244,245.999084 
	C342.240875,248.990448 338.484955,251.988602 334.362793,254.989716 
z"/>
<path fill="#8C8BF1" opacity="1.000000" stroke="none" 
	d="
M320.570190,192.105408 
	C320.910675,192.096130 320.972076,192.534637 320.984375,192.755402 
	C320.991699,193.725098 320.986694,194.474045 320.624756,195.672821 
	C318.869781,198.661377 317.096222,201.066849 316.139618,203.762253 
	C312.303345,214.571533 308.721222,225.470978 305.043457,236.336533 
	C301.022186,248.216995 296.999115,260.096863 292.976807,271.976990 
	C291.112915,271.552795 289.249023,271.128632 287.200073,270.396118 
	C291.993866,268.585846 292.599396,263.929413 293.925476,260.029816 
	C298.779205,245.756363 303.306915,231.372253 308.131958,217.088806 
	C310.471741,210.162430 313.031647,203.296646 315.863007,196.559372 
	C316.610657,194.780304 318.736633,193.580475 320.570190,192.105408 
z"/>
<path fill="#8C8BF1" opacity="1.000000" stroke="none" 
	d="
M273.803711,254.267090 
	C274.366180,259.981049 270.215820,263.094086 265.009491,259.564453 
	C257.844055,254.706650 251.669388,248.387421 245.031982,242.347137 
	C250.651993,243.354294 256.429565,244.503098 259.453491,250.394882 
	C263.650269,249.224411 264.176727,253.923248 266.766022,254.922104 
	C268.698608,255.667633 271.278748,254.734604 273.803711,254.267090 
z"/>
<path fill="#8C8BF1" opacity="1.000000" stroke="none" 
	d="
M266.658081,215.011902 
	C263.146362,219.120880 259.143280,223.120941 255.440598,227.382019 
	C253.676163,229.412537 252.483032,231.939468 251.033920,234.610062 
	C249.715042,234.378845 248.040543,234.068588 247.214645,233.062027 
	C246.775833,232.527222 247.442108,230.392380 248.236298,229.652863 
	C253.006454,225.211090 257.924072,220.924362 262.880219,216.688629 
	C263.813416,215.891113 265.143280,215.557724 266.658081,215.011902 
z"/>
<path fill="#7D7DEC" opacity="1.000000" stroke="none" 
	d="
M293.327667,271.947021 
	C296.999115,260.096863 301.022186,248.216995 305.043457,236.336533 
	C308.721222,225.470978 312.303345,214.571533 316.139618,203.762253 
	C317.096222,201.066849 318.869781,198.661377 320.619324,196.046875 
	C319.335999,201.730560 317.632660,207.471680 316.084412,213.254333 
	C314.313934,219.867035 312.681335,226.516678 310.981720,233.572968 
	C308.011292,240.779236 304.864502,247.490753 302.161621,254.376556 
	C300.797272,257.852356 300.682831,261.843536 299.166840,265.226898 
	C298.028839,267.766754 295.556702,269.708832 293.327667,271.947021 
z"/>
</svg>